{"asset":{"version":"2.0","generator":"THREE.GLTFExporter"},"scenes":[{"nodes":[6]}],"scene":0,"nodes":[{"matrix":[1,0,0,0,0,2.220446049250313e-16,1,0,0,-1,2.220446049250313e-16,0,0,0,0,1],"name":"ring","mesh":0},{"matrix":[2.220446049250313e-16,1,0,0,-1,2.220446049250313e-16,0,0,0,0,1,0,0,0,0,1],"name":"hub","mesh":1},{"matrix":[2.220446049250313e-16,1,0,0,-1,2.220446049250313e-16,0,0,0,0,1,0,0,0,0,1],"name":"armA_tube","mesh":2},{"matrix":[0.7071067811865475,0.7071067811865476,0,0,-0.7071067811865476,0.7071067811865475,0,0,0,0,1,0,0,0,0,1],"name":"armA","children":[2]},{"matrix":[2.220446049250313e-16,1,0,0,-1,2.220446049250313e-16,0,0,0,0,1,0,0,0,0,1],"name":"armB_tube","mesh":3},{"matrix":[0.7071067811865475,-0.7071067811865476,0,0,0.7071067811865476,0.7071067811865475,0,0,0,0,1,0,0,0,0,1],"name":"armB","children":[4]},{"name":"root","children":[0,1,3,5]}],"bufferViews":[{"buffer":0,"byteOffset":0,"byteLength":20604,"target":34962,"byteStride":12},{"buffer":0,"byteOffset":20604,"byteLength":20604,"target":34962,"byteStride":12},{"buffer":0,"byteOffset":41208,"byteLength":13736,"target":34962,"byteStride":8},{"buffer":0,"byteOffset":54944,"byteLength":19200,"target":34963},{"buffer":0,"byteOffset":74144,"byteLength":2352,"target":34962,"byteStride":12},{"buffer":0,"byteOffset":76496,"byteLength":2352,"target":34962,"byteStride":12},{"buffer":0,"byteOffset":78848,"byteLength":1568,"target":34962,"byteStride":8},{"buffer":0,"byteOffset":80416,"byteLength":768,"target":34963},{"buffer":0,"byteOffset":81184,"byteLength":1200,"target":34962,"byteStride":12},{"buffer":0,"byteOffset":82384,"byteLength":1200,"target":34962,"byteStride":12},{"buffer":0,"byteOffset":83584,"byteLength":800,"target":34962,"byteStride":8},{"buffer":0,"byteOffset":84384,"byteLength":384,"target":34963},{"buffer":0,"byteOffset":84768,"byteLength":1200,"target":34962,"byteStride":12},{"buffer":0,"byteOffset":85968,"byteLength":1200,"target":34962,"byteStride":12},{"buffer":0,"byteOffset":87168,"byteLength":800,"target":34962,"byteStride":8},{"buffer":0,"byteOffset":87968,"byteLength":384,"target":34963}],"buffers":[{"byteLength":88352,"uri":"data:application/octet-stream;base64,"}],"accessors":[{"bufferView":0,"componentType":5126,"count":1717,"max":[45,45,5],"min":[-45,-45,-5],"type":"VEC3"},{"bufferView":1,"componentType":5126,"count":1717,"max":[1,1,1],"min":[-1,-1,-1],"type":"VEC3"},{"bufferView":2,"componentType":5126,"count":1717,"max":[1,1],"min":[0,0],"type":"VEC2"},{"bufferView":3,"componentType":5123,"count":9600,"max":[1716],"min":[0],"type":"SCALAR"},{"bufferView":4,"componentType":5126,"count":196,"max":[5,10,5],"min":[-5,-10,-5],"type":"VEC3"},{"bufferView":5,"componentType":5126,"count":196,"max":[1,1,1],"min":[-1,-1,-1],"type":"VEC3"},{"bufferView":6,"componentType":5126,"count":196,"max":[1,1],"min":[0,0],"type":"VEC2"},{"bufferView":7,"componentType":5123,"count":384,"max":[195],"min":[0],"type":"SCALAR"},{"bufferView":8,"componentType":5126,"count":100,"max":[2,40,2],"min":[-2,-40,-2],"type":"VEC3"},{"bufferView":9,"componentType":5126,"count":100,"max":[1,1,1],"min":[-1,-1,-1],"type":"VEC3"},{"bufferView":10,"componentType":5126,"count":100,"max":[1,1],"min":[0,0],"type":"VEC2"},{"bufferView":11,"componentType":5123,"count":192,"max":[99],"min":[0],"type":"SCALAR"},{"bufferView":12,"componentType":5126,"count":100,"max":[2,40,2],"min":[-2,-40,-2],"type":"VEC3"},{"bufferView":13,"componentType":5126,"count":100,"max":[1,1,1],"min":[-1,-1,-1],"type":"VEC3"},{"bufferView":14,"componentType":5126,"count":100,"max":[1,1],"min":[0,0],"type":"VEC2"},{"bufferView":15,"componentType":5123,"count":192,"max":[99],"min":[0],"type":"SCALAR"}],"materials":[{"pbrMetallicRoughness":{"baseColorFactor":[0.09084171117479915,0.09084171117479915,0.09084171117479915,1],"metallicFactor":0.8,"roughnessFactor":0.2},"extensions":{"KHR_materials_emissive_strength":{"emissiveStrength":0}}},{"pbrMetallicRoughness":{"baseColorFactor":[0.057805430183792694,0.057805430183792694,0.057805430183792694,1],"metallicFactor":0.9,"roughnessFactor":0.1},"extensions":{"KHR_materials_emissive_strength":{"emissiveStrength":0}}},{"pbrMetallicRoughness":{"baseColorFactor":[0.033104766565152086,0.033104766565152086,0.033104766565152086,1],"metallicFactor":0.2,"roughnessFactor":0.5},"extensions":{"KHR_materials_emissive_strength":{"emissiveStrength":0}}},{"pbrMetallicRoughness":{"baseColorFactor":[0.033104766565152086,0.033104766565152086,0.033104766565152086,1],"metallicFactor":0.2,"roughnessFactor":0.5},"extensions":{"KHR_materials_emissive_strength":{"emissiveStrength":0}}}],"meshes":[{"primitives":[{"mode":4,"attributes":{"POSITION":0,"NORMAL":1,"TEXCOORD_0":2},"indices":3,"material":0}]},{"primitives":[{"mode":4,"attributes":{"POSITION":4,"NORMAL":5,"TEXCOORD_0":6},"indices":7,"material":1}]},{"primitives":[{"mode":4,"attributes":{"POSITION":8,"NORMAL":9,"TEXCOORD_0":10},"indices":11,"material":2}]},{"primitives":[{"mode":4,"attributes":{"POSITION":12,"NORMAL":13,"TEXCOORD_0":14},"indices":15,"material":3}]}],"extensionsUsed":["KHR_materials_emissive_strength"]}